<svg width="1024" height="1024" viewBox="0 0 512 512" fill="none" xmlns="http://www.w3.org/2000/svg" role="img" aria-labelledby="title desc">
  <title id="title">OpenHive Logo Mark</title>
  <desc id="desc">Stylized bee mascot inside a hexagonal hive frame with amber gradient.</desc>

  <defs>
    <linearGradient id="panelGradient" x1="100" y1="78" x2="412" y2="430" gradientUnits="userSpaceOnUse">
      <stop offset="0" stop-color="#1f232a"/>
      <stop offset="1" stop-color="#141619"/>
    </linearGradient>
    <linearGradient id="beeGradient" x1="188" y1="142" x2="328" y2="410" gradientUnits="userSpaceOnUse">
      <stop offset="0" stop-color="#f7be4e"/>
      <stop offset="1" stop-color="#b87410"/>
    </linearGradient>
    <linearGradient id="wingGradient" x1="118" y1="210" x2="394" y2="330" gradientUnits="userSpaceOnUse">
      <stop offset="0" stop-color="#c9d8ee" stop-opacity="0.72"/>
      <stop offset="1" stop-color="#8ba3cf" stop-opacity="0.32"/>
    </linearGradient>
    <clipPath id="beeClip">
      <path d="M256 124C189 124 146 178 146 247C146 307 177 358 213 384V428H236V395C248 399 264 399 276 395V428H299V384C335 358 366 307 366 247C366 178 323 124 256 124Z"/>
    </clipPath>
  </defs>

  <path d="M256 32L440 138V374L256 480L72 374V138L256 32Z" fill="url(#panelGradient)" stroke="#2a3240" stroke-width="10"/>

  <path d="M153 236C102 218 78 254 92 299C107 348 164 344 188 299C198 279 193 251 153 236Z" fill="url(#wingGradient)" stroke="#7d95c0" stroke-opacity="0.6" stroke-width="6"/>
  <path d="M359 236C410 218 434 254 420 299C405 348 348 344 324 299C314 279 319 251 359 236Z" fill="url(#wingGradient)" stroke="#7d95c0" stroke-opacity="0.6" stroke-width="6"/>

  <path d="M256 124C189 124 146 178 146 247C146 307 177 358 213 384V428H236V395C248 399 264 399 276 395V428H299V384C335 358 366 307 366 247C366 178 323 124 256 124Z" fill="url(#beeGradient)" stroke="#9b5f0d" stroke-width="8"/>

  <g clip-path="url(#beeClip)">
    <rect x="118" y="244" width="276" height="32" fill="#2d3139" opacity="0.84"/>
    <rect x="118" y="300" width="276" height="30" fill="#2d3139" opacity="0.78"/>
  </g>

  <path d="M222 129Q204 106 193 112" stroke="#f7be4e" stroke-width="8" stroke-linecap="round"/>
  <path d="M290 129Q308 106 319 112" stroke="#f7be4e" stroke-width="8" stroke-linecap="round"/>

  <circle cx="222" cy="213" r="18" fill="#111319"/>
  <circle cx="290" cy="213" r="18" fill="#111319"/>
  <circle cx="228" cy="208" r="6" fill="#61a8ff"/>
  <circle cx="296" cy="208" r="6" fill="#61a8ff"/>

  <path d="M242 426H270L256 452L242 426Z" fill="#9b5f0d"/>

  <path d="M140 169L171 151L202 169L202 205L171 223L140 205Z" stroke="#f5a623" stroke-opacity="0.2" stroke-width="6"/>
  <path d="M310 169L341 151L372 169L372 205L341 223L310 205Z" stroke="#f5a623" stroke-opacity="0.2" stroke-width="6"/>
</svg>
